<?xml version="1.0" encoding="UTF-8"?>
<svg width="26px" height="26px" viewBox="0 0 26 26" version="1.1" xmlns="http://www.w3.org/2000/svg" xmlns:xlink="http://www.w3.org/1999/xlink">
    <title>2</title>
    <defs>
        <filter color-interpolation-filters="auto" id="filter-1">
            <feColorMatrix in="SourceGraphic" type="matrix" values="0 0 0 0 0.984314 0 0 0 0 0.611765 0 0 0 0 0.000000 0 0 0 1.000000 0"></feColorMatrix>
        </filter>
    </defs>
    <g id="Desktop" stroke="none" stroke-width="1" fill="none" fill-rule="evenodd">
        <g id="Listing" transform="translate(-944.000000, -1046.000000)">
            <g id="Group-21" transform="translate(165.000000, 683.000000)">
                <g id="Group-16" transform="translate(759.000000, 0.000000)">
                    <g id="Group-14" transform="translate(0.000000, 233.000000)">
                        <g id="Group-13" transform="translate(20.000000, 76.000000)">
                            <g id="Group-9-Copy-7" transform="translate(0.000000, 49.000000)">
                                <g id="2" transform="translate(0.000000, 5.000000)">
                                    <path d="M26,13 C26,20.1797218 20.1797218,26 13,26 C5.82027823,26 4.54747351e-13,20.1797218 4.54747351e-13,13 C4.54747351e-13,5.82027823 5.82027823,0 13,0 C20.1797218,0 26,5.82027823 26,13 Z" id="Path" fill="#FB9C00" fill-rule="nonzero" opacity="0.200000003"></path>
                                    <g filter="url(#filter-1)" id="11">
                                        <g transform="translate(6.000000, 6.000000)">
                                            <path d="M10.9699457,4.8009542 L8.99887361,6.41069821 C9.60047977,7.3376866 9.56094491,8.53771699 8.89961099,9.42368845 L10.553988,11.4182692 C10.7742799,11.2791344 11.0302867,11.2059751 11.2913675,11.2075476 C11.8601725,11.206599 12.3735361,11.5459685 12.5920473,12.0673886 C12.8105585,12.5888088 12.6911784,13.1895786 12.2895809,13.5895246 C11.8879834,13.9894705 11.2832686,14.1098177 10.75745,13.8944412 C10.2316313,13.6790648 9.88827601,13.1703861 9.88751043,12.6056314 C9.88654592,12.3693553 9.94677016,12.1367999 10.0624017,11.9302898 L8.40802466,9.93570906 C7.33546652,10.7842238 5.7915894,10.6952438 4.82511663,9.72921129 L2.95330716,11.2591721 C3.06002369,11.4585281 3.11524433,11.6810629 3.11401808,11.9068242 C3.11593133,12.4729093 2.77395658,12.9843111 2.2477592,13.2022601 C1.72156181,13.420209 1.11493112,13.3017159 0.711098275,12.9021043 C0.307265433,12.5024928 0.18588409,11.9005837 0.403626252,11.3774038 C0.621368414,10.8542239 1.13528573,10.5129674 1.70543418,10.5129642 C1.97742242,10.5117686 2.24374442,10.5901169 2.47117442,10.7382345 L4.3949786,9.16556623 C4.35716427,9.10455553 4.32407672,9.03885169 4.29098918,8.97314785 C4.22392823,8.82754855 4.16860873,8.67689558 4.12555148,8.52260725 C4.06884555,8.30191418 4.04026142,8.07502721 4.04046923,7.84726567 C4.03999898,7.21448589 4.26617899,6.60216015 4.67858609,6.11972407 L3.03366262,4.13499888 C2.15267148,4.51339931 1.12597805,4.27259822 0.508650439,3.5427815 C-0.108677171,2.81296479 -0.170155953,1.76730751 0.357451778,0.971130338 C0.885059508,0.17495317 1.87655999,-0.182822444 2.7959117,0.0912301147 C3.71526341,0.365282674 4.34431735,1.20613466 4.34298389,2.15919064 C4.34426439,2.766266 4.0846114,3.34504443 3.62923836,3.75016212 L5.20798675,5.64618713 C5.89280788,5.17533592 6.75905442,5.04701785 7.55247538,5.29889543 C7.63138585,5.32239445 7.70874076,5.35076492 7.78408817,5.3838411 C8.0646545,5.50091082 8.32226078,5.66612989 8.54510162,5.87192675 L10.577622,4.20539585 C10.491786,3.99854533 10.4483973,3.77676441 10.4499986,3.55305061 C10.4510414,2.71253299 11.0497873,1.98973128 11.8802171,1.82650128 C12.7106469,1.66327128 13.5415992,2.10505027 13.8651047,2.88177442 C14.1886101,3.65849858 13.9146166,4.55395615 13.210619,5.02074512 C12.5066215,5.4875341 11.5685872,5.39571742 10.9699457,4.80142352 L10.9699457,4.8009542 Z" id="Path_1590" fill="#262626" fill-rule="nonzero"></path>
                                        </g>
                                    </g>
                                </g>
                            </g>
                        </g>
                    </g>
                </g>
            </g>
        </g>
    </g>
</svg>