<?xml version="1.0" encoding="UTF-8"?>
<svg width="26px" height="26px" viewBox="0 0 26 26" version="1.1" xmlns="http://www.w3.org/2000/svg" xmlns:xlink="http://www.w3.org/1999/xlink">
    <title>check-circle</title>
    <defs>
        <filter color-interpolation-filters="auto" id="filter-1">
            <feColorMatrix in="SourceGraphic" type="matrix" values="0 0 0 0 0.984314 0 0 0 0 0.611765 0 0 0 0 0.000000 0 0 0 1.000000 0"></feColorMatrix>
        </filter>
    </defs>
    <g id="Desktop" stroke="none" stroke-width="1" fill="none" fill-rule="evenodd">
        <g id="Listing" transform="translate(-944.000000, -1242.000000)">
            <g id="Group-21" transform="translate(165.000000, 683.000000)">
                <g id="Group-16" transform="translate(759.000000, 0.000000)">
                    <g id="Group-14" transform="translate(0.000000, 233.000000)">
                        <g id="Group-13" transform="translate(20.000000, 76.000000)">
                            <g id="Group-9-Copy-11" transform="translate(0.000000, 245.000000)">
                                <g id="check-circle" transform="translate(0.000000, 5.000000)">
                                    <path d="M26,13 C26,20.1797218 20.1797218,26 13,26 C5.82027823,26 0,20.1797218 0,13 C0,5.82027823 5.82027823,0 13,0 C20.1797218,0 26,5.82027823 26,13 Z" id="Path" fill="#FB9C00" fill-rule="nonzero" opacity="0.200000003"></path>
                                    <g filter="url(#filter-1)" id="single-neutral-actions-graduate">
                                        <g transform="translate(4.998944, 7.000000)">
                                            <path d="M0.00129983227,8.08703356 C0.00129981837,8.43249704 0.177241028,8.75171846 0.462848108,8.92445021 C0.748455187,9.09718195 1.10033762,9.09718195 1.3859447,8.92445021 C1.67155178,8.75171846 1.84749299,8.43249704 1.84749298,8.08703356 L1.84749298,5.3111982 C1.84797995,5.20682416 1.89649494,5.10910396 1.97778925,5.04875195 C2.05908356,4.98839995 2.16317544,4.97282647 2.25734786,5.00692642 L7.7959273,7.05560379 C7.92825889,7.10374438 8.07221979,7.10374438 8.20455138,7.05560379 L15.589324,4.32360419 C15.8303373,4.23382131 15.9931993,3.99722234 15.9985242,3.72932128 C16.0035933,3.46142021 15.8500415,3.21808587 15.6127091,3.11812065 L8.2279365,0.045749226 C8.08172298,-0.015249742 7.9187557,-0.015249742 7.77254219,0.045749226 L0.387769598,3.11812065 C0.150524383,3.21706271 -0.0037418715,3.45920251 0,3.72666421 L0,8.08703356 L0.00129983227,8.08703356 Z" id="Path" fill="#000000" fill-rule="nonzero"></path>
                                            <path d="M12.4323337,10.6037222 C12.6783652,10.5130131 12.8430856,10.2696886 12.8434194,9.99646792 L12.8434194,7.22965757 C12.8431642,7.02069036 12.7462286,6.82481654 12.5833558,6.70415775 C12.420483,6.58349895 12.2118816,6.55302595 12.0237096,6.62240329 L8.10978014,8.07027283 C8.04368092,8.09475304 7.97156731,8.09475304 7.90546809,8.07027283 L3.99153862,6.62240329 C3.80336666,6.55302595 3.59476518,6.58349895 3.4318924,6.70415775 C3.26901962,6.82481654 3.17208403,7.02069036 3.17182886,7.22965757 L3.17182886,9.99646792 C3.17216264,10.2696886 3.33688306,10.5130131 3.58291454,10.6037222 L6.74852039,11.774395 C7.56251895,12.0752017 8.45026769,12.0752017 9.26426625,11.774395 L12.4323337,10.6037222 Z" id="Path" fill="#000000" fill-rule="nonzero"></path>
                                        </g>
                                    </g>
                                </g>
                            </g>
                        </g>
                    </g>
                </g>
            </g>
        </g>
    </g>
</svg>