<?xml version="1.0" encoding="UTF-8"?>
<svg width="18px" height="18px" viewBox="0 0 18 18" version="1.1" xmlns="http://www.w3.org/2000/svg" xmlns:xlink="http://www.w3.org/1999/xlink">
	<title>
		cog
	</title>
	<g id="Desktop" stroke="none" stroke-width="1" fill="none" fill-rule="evenodd">
		<g id="Listing" transform="translate(-943.000000, -1690.000000)" fill="#9FADB8" fill-rule="nonzero">
			<g id="Group-21" transform="translate(165.000000, 683.000000)">
				<g id="Group-16" transform="translate(759.000000, 0.000000)">
					<g id="Group-14-Copy-2" transform="translate(0.000000, 987.000000)">
						<g id="Group-12" transform="translate(19.000000, 12.000000)">
							<g id="cog-1" transform="translate(0.000000, 8.000000)">
								<path d="M16.8159965,7.32136642 L15.8664666,6.98458963 C15.5915022,6.8868385 15.3708711,6.67708759 15.2593432,6.40740575 C15.1478152,6.13772391 15.1558482,5.83339901 15.2814481,5.56997706 L15.2814481,5.56997706 L15.7134618,4.66015466 C16.036361,3.97935876 15.8962269,3.16904676 15.3634501,2.63624428 C14.8306732,2.1034418 14.0204001,1.96330105 13.3396369,2.28621576 L12.4298582,2.7190002 C12.1662978,2.84403659 11.8621147,2.85159817 11.5926678,2.73981164 C11.3232209,2.6280251 11.1137187,2.40734883 11.0160636,2.13245352 L10.6785529,1.18362802 C10.4255092,0.473889782 9.75346607,0 9,0 C8.24653393,0 7.57449079,0.473889782 7.32144705,1.18362802 L6.98393641,2.13320358 C6.88612486,2.40796402 6.67655773,2.62846277 6.40712917,2.74009874 C6.13770061,2.85173472 5.83360415,2.84406914 5.57014181,2.7190002 L4.66036311,2.28621576 C3.97959991,1.96330105 3.16932683,2.1034418 2.63654994,2.63624428 C2.10377305,3.16904676 1.96363904,3.97935876 2.28653823,4.66015466 L2.71855186,5.56997706 C2.84390614,5.83343043 2.85181379,6.13765408 2.74031536,6.40726452 C2.62881693,6.67687495 2.40834614,6.88664276 2.13353341,6.98458963 L1.18400346,7.32211648 C0.474116489,7.57479398 0,8.24682753 0,9.00037503 C0,9.75392253 0.474116489,10.4259561 1.18400346,10.6786336 L2.13353341,11.0161604 C2.40829725,11.1139377 2.62876793,11.3235628 2.7402775,11.5930572 C2.85178707,11.8625516 2.84389269,12.1666772 2.71855186,12.4300229 L2.28653823,13.3398453 C1.96363904,14.0206412 2.10377305,14.8309532 2.63654994,15.3637557 C3.16932683,15.8965582 3.97959991,16.0366989 4.66036311,15.7137842 L5.57014181,15.2817499 C5.83354159,15.1561894 6.13784077,15.1482731 6.40741217,15.2599682 C6.67698357,15.3716634 6.88651667,15.5924828 6.98393641,15.8675465 L7.32144705,16.816372 C7.57449079,17.5261102 8.24653393,18 9,18 C9.75346607,18 10.4255092,17.5261102 10.6785529,16.816372 L11.0160636,15.8667964 C11.1138361,15.5920194 11.3234512,15.3715381 11.5929327,15.2600232 C11.8624141,15.1485083 12.1665251,15.156403 12.4298582,15.2817499 L13.3396369,15.7137842 C14.0204001,16.0366989 14.8306732,15.8965582 15.3634501,15.3637557 C15.8962269,14.8309532 16.036361,14.0206412 15.7134618,13.3398453 L15.2814481,12.4300229 C15.1561073,12.1666772 15.1482129,11.8625516 15.2597225,11.5930572 C15.3712321,11.3235628 15.5917027,11.1139377 15.8664666,11.0161604 L16.8159965,10.6778835 C17.5258835,10.425206 18,9.75317247 18,8.99962497 C18,8.24607747 17.5258835,7.57404392 16.8159965,7.32136642 Z M9,12.5882855 C7.55334378,12.5672979 6.25182467,11.7044615 5.66914493,10.3801098 C4.90952699,8.54064838 5.78179015,6.43336067 7.61920644,5.66898494 C9.45850226,4.93338172 11.5488225,5.7987047 12.330105,7.61914012 C13.089723,9.45860156 12.2174598,11.5658893 10.3800435,12.330265 C9.94264178,12.5101807 9.47285538,12.5980146 9,12.5882855 Z" id="Shape">
								</path>
							</g>
						</g>
					</g>
				</g>
			</g>
		</g>
	</g>
</svg>
