<?xml version="1.0" encoding="UTF-8"?>
<svg width="17px" height="18px" viewBox="0 0 17 18" version="1.1" xmlns="http://www.w3.org/2000/svg" xmlns:xlink="http://www.w3.org/1999/xlink">
    <title>house-4</title>
    <defs>
        <filter color-interpolation-filters="auto" id="filter-1">
            <feColorMatrix in="SourceGraphic" type="matrix" values="0 0 0 0 0.094118 0 0 0 0 0.231373 0 0 0 0 0.337255 0 0 0 1.000000 0"></feColorMatrix>
        </filter>
    </defs>
    <g id="Desktop" stroke="none" stroke-width="1" fill="none" fill-rule="evenodd" opacity="0.400000006">
        <g id="Listing" transform="translate(-944.000000, -936.000000)">
            <g id="Group-21" transform="translate(165.000000, 683.000000)">
                <g id="Group-16" transform="translate(759.000000, 0.000000)">
                    <g id="Group-14" transform="translate(0.000000, 233.000000)">
                        <g id="house-4" transform="translate(20.000000, 12.000000)" filter="url(#filter-1)">
                            <g transform="translate(0.000000, 8.000000)">
                                <path d="M1.72804095,7.94259936 L8.27534128,2.33040481 C8.40463109,2.219461 8.59175122,2.219461 8.72104103,2.33040481 L15.2683414,7.94259936 C15.4862207,8.13020449 15.7680982,8.2183714 16.0497225,8.1870033 C16.3313468,8.15563521 16.5887184,8.00740526 16.763172,7.77610101 C17.1323578,7.29099852 17.062473,6.58952718 16.6054406,6.19286665 L10.0581403,0.580672092 C9.1522868,-0.193557364 7.8440955,-0.193557364 6.93824204,0.580672092 L0.394559403,6.19286665 C-0.0624729958,6.58952718 -0.132357822,7.29099852 0.236828,7.77610101 C0.411456929,8.00591999 0.668048591,8.15311673 0.948651935,8.18444692 C1.22925528,8.21577712 1.51020217,8.12859816 1.72804095,7.94259936 Z" id="Path" fill="#000000" fill-rule="nonzero"></path>
                                <path d="M15.9369592,16.5000148 L15.9369592,11.2500667 C15.9247508,10.794146 15.7331092,10.3632442 15.4065372,10.0575785 L9.40116726,4.80763033 C8.88032262,4.35099979 8.11750676,4.35099979 7.59666212,4.80763033 L1.59129216,10.0620784 C1.26518776,10.3663599 1.07309386,10.7954779 1.05942307,11.2500667 L1.05942307,16.5000148 C1.05185632,17.31942 1.68569299,17.9905242 2.47617981,18 L6.37315843,18 C6.76848657,17.9954677 7.08552031,17.6597934 7.08150267,17.2500074 L7.08150267,13.1250482 C7.07788491,12.7154289 7.39468813,12.3799987 7.78984691,12.3750556 L9.20653539,12.3750556 C9.60169418,12.3799987 9.9184974,12.7154289 9.91487963,13.1250482 L9.91487963,17.2500074 C9.910862,17.6597934 10.2278957,17.9954677 10.6232239,18 L14.5202025,18 C15.3106893,17.9905242 15.944526,17.31942 15.9369592,16.5000148 Z" id="Path" fill="#000000" fill-rule="nonzero"></path>
                            </g>
                        </g>
                    </g>
                </g>
            </g>
        </g>
    </g>
</svg>