<?xml version="1.0" encoding="UTF-8"?>
<svg width="21px" height="21px" viewBox="0 0 21 21" version="1.1" xmlns="http://www.w3.org/2000/svg" xmlns:xlink="http://www.w3.org/1999/xlink">
    <title>lock</title>
    <defs>
        <filter color-interpolation-filters="auto" id="filter-1">
            <feColorMatrix in="SourceGraphic" type="matrix" values="0 0 0 0 1.000000 0 0 0 0 1.000000 0 0 0 0 1.000000 0 0 0 1.000000 0"></feColorMatrix>
        </filter>
    </defs>
    <g id="Desktop" stroke="none" stroke-width="1" fill="none" fill-rule="evenodd">
        <g id="Listing" transform="translate(-944.000000, -1756.000000)">
            <g id="Group-21" transform="translate(165.000000, 683.000000)">
                <g id="Group-16" transform="translate(759.000000, 0.000000)">
                    <g id="Group-14-Copy-2" transform="translate(0.000000, 987.000000)">
                        <g id="Group-13" transform="translate(20.000000, 79.000000)">
                            <g id="Group-33" transform="translate(0.000000, 7.000000)">
                                <path d="M21,10.5 C21,16.299006 16.299006,21 10.5,21 C4.70099395,21 0,16.299006 0,10.5 C0,4.70099395 4.70099395,0 10.5,0 C16.299006,0 21,4.70099395 21,10.5 Z" id="Path" fill="#FB9C00" fill-rule="nonzero"></path>
                                <g filter="url(#filter-1)" id="lock-unlock-4">
                                    <g transform="translate(6.000000, 5.000000)">
                                        <path d="M7.69736842,5.03 L7.69736842,3.375 C7.69736842,1.51103897 6.26585782,0 4.5,0 C2.73414218,0 1.30263158,1.51103897 1.30263158,3.375 C1.30263158,3.72017797 1.56772613,4 1.89473684,4 C2.22174755,4 2.48684211,3.72017797 2.48684211,3.375 C2.48684211,2.20139491 3.3881636,1.25 4.5,1.25 C5.6118364,1.25 6.51315789,2.20139491 6.51315789,3.375 L6.51315789,4.5 C6.51315789,4.63807119 6.40712007,4.75 6.27631579,4.75 L2.36842105,4.75 C1.06102745,4.75165306 0.00156605511,5.86997342 0,7.25 L0,9.5 C0.00156605511,10.8800266 1.06102745,11.9983469 2.36842105,12 L6.63157895,12 C7.93897255,11.9983469 8.99843394,10.8800266 9,9.5 L9,7.25 C8.99682891,6.31000996 8.49322597,5.45174846 7.69736842,5.03 Z M5.44736842,8.25 C5.44736842,8.80228475 5.02321713,9.25 4.5,9.25 C3.97678287,9.25 3.55263158,8.80228475 3.55263158,8.25 C3.55263158,7.69771525 3.97678287,7.25 4.5,7.25 C5.02321713,7.25 5.44736842,7.69771525 5.44736842,8.25 Z" id="Shape" fill="#000000" fill-rule="nonzero"></path>
                                    </g>
                                </g>
                            </g>
                        </g>
                    </g>
                </g>
            </g>
        </g>
    </g>
</svg>