<?xml version="1.0" encoding="UTF-8"?>
<svg width="14px" height="12px" viewBox="0 0 14 12" version="1.1" xmlns="http://www.w3.org/2000/svg" xmlns:xlink="http://www.w3.org/1999/xlink">
    <title>single-neutral-actions-mail</title>
    <defs>
        <filter color-interpolation-filters="auto" id="filter-1">
            <feColorMatrix in="SourceGraphic" type="matrix" values="0 0 0 0 0.584314 0 0 0 0 0.619608 0 0 0 0 0.678431 0 0 0 1.000000 0"></feColorMatrix>
        </filter>
    </defs>
    <g id="Desktop" stroke="none" stroke-width="1" fill="none" fill-rule="evenodd">
        <g id="Content-Page" transform="translate(-495.000000, -2608.000000)">
            <g id="Group-19" transform="translate(305.000000, 2372.000000)">
                <g id="Group-9" transform="translate(20.000000, 66.000000)">
                    <g id="single-neutral-actions-mail" transform="translate(169.999889, 167.000000)" filter="url(#filter-1)">
                        <g transform="translate(0.000000, 3.500000)">
                            <path d="M13.8495,4.28768421 C13.7566616,4.23406667 13.6430181,4.23731632 13.5531666,4.29615789 L8.39066674,8.02215789 C7.53894561,8.5707886 6.46105459,8.5707886 5.60933346,8.02215789 L0.446833556,4.29615789 C0.356894806,4.23752592 0.243347504,4.23426062 0.150416973,4.28763378 C0.057486442,4.34100695 0,4.44257924 0,4.55278947 L0,9.68421053 C0,10.1657878 0.184374698,10.627641 0.512563355,10.9681676 C0.840752011,11.3086942 1.28587135,11.5 1.7500002,11.5 L12.25,11.5 C13.2164983,11.5 14,10.6870434 14,9.68421053 L14,4.55278947 C14.0003512,4.442508 13.9426296,4.3408316 13.8495,4.28768421 Z" id="Path" fill="#000000" fill-rule="nonzero"></path>
                            <path d="M14.0000001,1.81578947 C14.0000001,0.812956638 13.2164983,0 12.25,0 L1.7500002,0 C0.783501904,0 1.3342742e-07,0.812956638 1.3342742e-07,1.81578947 C1.3342742e-07,1.84683484 0.0154055962,1.8756909 0.0408335638,1.89205263 L6.53333344,6.48236842 C6.81694714,6.66529254 7.17605306,6.66529254 7.45966676,6.48236842 L13.9556666,1.89205263 C13.9822717,1.87641519 13.9990797,1.84750175 14.0000001,1.81578947 Z" id="Path" fill="#000000" fill-rule="nonzero"></path>
                        </g>
                    </g>
                </g>
            </g>
        </g>
    </g>
</svg>