<?xml version="1.0" encoding="UTF-8"?>
<svg width="26px" height="26px" viewBox="0 0 26 26" version="1.1" xmlns="http://www.w3.org/2000/svg" xmlns:xlink="http://www.w3.org/1999/xlink">
    <title>4</title>
    <defs>
        <filter color-interpolation-filters="auto" id="filter-1">
            <feColorMatrix in="SourceGraphic" type="matrix" values="0 0 0 0 0.984314 0 0 0 0 0.611765 0 0 0 0 0.000000 0 0 0 1.000000 0"></feColorMatrix>
        </filter>
    </defs>
    <g id="Desktop" stroke="none" stroke-width="1" fill="none" fill-rule="evenodd">
        <g id="Listing" transform="translate(-944.000000, -1144.000000)">
            <g id="Group-21" transform="translate(165.000000, 683.000000)">
                <g id="Group-16" transform="translate(759.000000, 0.000000)">
                    <g id="Group-14" transform="translate(0.000000, 233.000000)">
                        <g id="Group-13" transform="translate(20.000000, 76.000000)">
                            <g id="Group-9-Copy-9" transform="translate(0.000000, 147.000000)">
                                <g id="4" transform="translate(0.000000, 5.000000)">
                                    <path d="M26,13 C26,20.1797218 20.1797218,26 13,26 C5.82027823,26 0,20.1797218 0,13 C0,5.82027823 5.82027823,0 13,0 C20.1797218,0 26,5.82027823 26,13 Z" id="Path" fill="#FB9C00" fill-rule="nonzero" opacity="0.200000003"></path>
                                    <g filter="url(#filter-1)" id="6">
                                        <g transform="translate(6.000000, 6.000000)">
                                            <polygon id="Path_1578" fill="#262626" fill-rule="nonzero" points="14 4.60017213 14 9.39982787 9.39998087 9.39982787 9.39998087 14 4.60001913 14 4.60001913 9.39982787 0 9.39982787 0 4.60017213 4.60001913 4.60017213 4.60001913 0 9.39998087 0 9.39998087 4.60017213"></polygon>
                                        </g>
                                    </g>
                                </g>
                            </g>
                        </g>
                    </g>
                </g>
            </g>
        </g>
    </g>
</svg>