<?xml version="1.0" encoding="UTF-8"?>
<svg width="12px" height="12px" viewBox="0 0 12 12" version="1.1" xmlns="http://www.w3.org/2000/svg" xmlns:xlink="http://www.w3.org/1999/xlink">
    <title>pencil</title>
    <defs>
        <filter color-interpolation-filters="auto" id="filter-1">
            <feColorMatrix in="SourceGraphic" type="matrix" values="0 0 0 0 0.984400 0 0 0 0 0.612401 0 0 0 0 0.002948 0 0 0 1.000000 0"></feColorMatrix>
        </filter>
    </defs>
    <g id="Desktop" stroke="none" stroke-width="1" fill="none" fill-rule="evenodd">
        <g id="Listing" transform="translate(-995.000000, -229.000000)">
            <g id="Group-7" transform="translate(165.000000, 168.000000)">
                <g id="Group-30" transform="translate(565.000000, 0.000000)">
                    <g id="Group-4" transform="translate(0.000000, 52.000000)">
                        <g id="pencil" transform="translate(265.000000, 3.000000)" filter="url(#filter-1)">
                            <g transform="translate(0.000000, 6.000000)">
                                <path d="M8.09341455,1.74865666 C7.99425472,1.6546305 7.838946,1.6546305 7.73978617,1.74865666 L2.03121382,7.4624339 C1.9335829,7.56018336 1.9335829,7.71863524 2.03121382,7.8163847 L4.17199098,9.95911374 C4.26965139,10.0568337 4.42795894,10.0568337 4.52561935,9.95911374 L10.2341917,4.24633778 C10.3318226,4.14858832 10.3318226,3.99013644 10.2341917,3.89238698 L8.09341455,1.74865666 Z" id="Path" fill="#000000" fill-rule="nonzero"></path>
                                <path d="M1.49752008,8.3565727 C1.43590957,8.29527115 1.3469297,8.27036263 1.26248536,8.29077841 C1.17804102,8.31119419 1.1102311,8.37400917 1.08336973,8.45670022 L0.0129811575,11.6707938 C-0.0171432023,11.7607176 0.00609534058,11.8599591 0.0730029468,11.9271203 C0.140458858,11.9934293 0.239119887,12.016767 0.329095915,11.9876974 L3.54026164,10.9168335 C3.62307723,10.8900276 3.68601236,10.8220533 3.7064251,10.7373654 C3.72683783,10.6526774 3.70179189,10.5634579 3.64029796,10.5018049 L1.49752008,8.3565727 Z" id="Path" fill="#000000" fill-rule="nonzero"></path>
                                <path d="M11.4851458,0.500066416 C10.7869083,-0.166688805 9.68847764,-0.166688805 8.99024012,0.500066416 L8.63411083,0.857021044 C8.53647991,0.954770503 8.53647991,1.11322239 8.63411083,1.21097185 L10.7743878,3.35370089 C10.8720482,3.45142083 11.0303558,3.45142083 11.1280162,3.35370089 L11.4851458,2.99474371 C12.1716181,2.30511795 12.1716181,1.18969217 11.4851458,0.500066416 L11.4851458,0.500066416 Z" id="Path" fill="#000000" fill-rule="nonzero"></path>
                            </g>
                        </g>
                    </g>
                </g>
            </g>
        </g>
    </g>
</svg>