<?xml version="1.0" encoding="UTF-8"?>
<svg width="39px" height="38px" viewBox="0 0 39 38" version="1.1" xmlns="http://www.w3.org/2000/svg" xmlns:xlink="http://www.w3.org/1999/xlink">
    <title>phone-actions-menu</title>
    <g id="Desktop" stroke="none" stroke-width="1" fill="none" fill-rule="evenodd">
        <g id="Homepage-V.1" transform="translate(-700.000000, -1234.000000)" fill-rule="nonzero">
            <g id="Group-21-Copy" transform="translate(191.000000, 1058.000000)">
                <g id="Group-10" transform="translate(0.000000, 155.000000)">
                    <g id="Group-7-Copy" transform="translate(391.500000, 0.000000)">
                        <g id="phone-actions-menu" transform="translate(118.000000, 21.000000)">
                            <path d="M27.1806622,25.4631052 C25.6140233,23.9489348 23.1460134,23.9489348 21.5793745,25.4631052 L20.9696782,26.0777926 C17.6517594,23.2655845 14.5846288,20.1642217 11.8036467,16.8094592 L12.4149266,16.1947718 C13.9538877,14.6280417 13.9538877,12.0996547 12.4149266,10.5329246 L9.05130346,7.13773723 C7.50348709,5.57988209 5.00099935,5.57988209 3.45318298,7.13773723 L1.6114251,9.0010084 C-0.237294428,10.8874881 -0.529107847,13.8238253 0.911462089,16.0443015 C6.39111759,24.391356 13.4666292,31.5466314 21.7219009,37.089341 C23.9222332,38.5305105 26.8170755,38.2365664 28.6898585,36.3818102 L30.5332,34.5185391 C32.0787482,32.955809 32.0787482,30.4226234 30.5332,28.8598934 L27.1806622,25.4631052 Z" id="Path" fill="#FCCE81"></path>
                            <path d="M25.3309862,3.60168396 L36.4163733,3.60168396 C37.2909862,3.60168396 38,2.88500448 38,2.00093553 C38,1.11686659 37.2909862,0.400187106 36.4163733,0.400187106 L25.3309862,0.400187106 C24.4563733,0.400187106 23.7473595,1.11686659 23.7473595,2.00093553 C23.7473595,2.88500448 24.4563733,3.60168396 25.3309862,3.60168396 Z" id="Path" fill="#FB9C00"></path>
                            <path d="M36.4163733,6.80318081 L25.3309862,6.80318081 C24.4563733,6.80318081 23.7473595,7.51986029 23.7473595,8.40392924 C23.7473595,9.28799818 24.4563733,10.0046777 25.3309862,10.0046777 L36.4163733,10.0046777 C37.2909862,10.0046777 38,9.28799818 38,8.40392924 C38,7.51986029 37.2909862,6.80318081 36.4163733,6.80318081 Z" id="Path" fill="#FB9C00"></path>
                            <path d="M36.4163733,13.2061745 L25.3309862,13.2061745 C24.4563733,13.2061745 23.7473595,13.922854 23.7473595,14.8069229 C23.7473595,15.6909919 24.4563733,16.4076714 25.3309862,16.4076714 L36.4163733,16.4076714 C37.2909862,16.4076714 38,15.6909919 38,14.8069229 C38,13.922854 37.2909862,13.2061745 36.4163733,13.2061745 Z" id="Path" fill="#FB9C00"></path>
                            <ellipse id="Oval" fill="#FB9C00" cx="18.993312" cy="2.00093553" rx="1.97953341" ry="2.00093553"></ellipse>
                            <ellipse id="Oval" fill="#FB9C00" cx="18.993312" cy="8.40392924" rx="1.97953341" ry="2.00093553"></ellipse>
                            <ellipse id="Oval" fill="#FB9C00" cx="18.993312" cy="14.8069229" rx="1.97953341" ry="2.00093553"></ellipse>
                        </g>
                    </g>
                </g>
            </g>
        </g>
    </g>
</svg>