<?xml version="1.0" encoding="UTF-8"?>
<svg width="1em" height="1em" viewBox="0 0 11 11" version="1.1" xmlns="http://www.w3.org/2000/svg" xmlns:xlink="http://www.w3.org/1999/xlink">
	<title>
		Path
	</title>
	<defs>
		<filter x="-40.9%" y="-140.6%" width="181.8%" height="381.2%" filterUnits="objectBoundingBox" id="filter-1">
			<feOffset dx="0" dy="10" in="SourceAlpha" result="shadowOffsetOuter1">
			</feOffset>
			<feGaussianBlur stdDeviation="12.5" in="shadowOffsetOuter1" result="shadowBlurOuter1">
			</feGaussianBlur>
			<feColorMatrix values="0 0 0 0 0.0823529412   0 0 0 0 0.145098039   0 0 0 0 0.282352941  0 0 0 0.1 0" type="matrix" in="shadowBlurOuter1" result="shadowMatrixOuter1">
			</feColorMatrix>
			<feMerge>
				<feMergeNode in="shadowMatrixOuter1">
				</feMergeNode>
				<feMergeNode in="SourceGraphic">
				</feMergeNode>
			</feMerge>
		</filter>
	</defs>
	<path d="M11,8.6875 C11,8.828125 10.9739583,9.01171875 10.921875,9.23828125 C10.8697917,9.46484375 10.8151042,9.64322917 10.7578125,9.7734375 C10.6484375,10.0338542 10.3307292,10.3098958 9.8046875,10.6015625 C9.31510417,10.8671875 8.83072917,11 8.3515625,11 C8.2109375,11 8.07421875,10.9908854 7.94140625,10.9726562 C7.80859375,10.9544271 7.65885417,10.921875 7.4921875,10.875 C7.32552083,10.828125 7.20182292,10.7903646 7.12109375,10.7617188 C7.04036458,10.7330729 6.89583333,10.6796875 6.6875,10.6015625 C6.47916667,10.5234375 6.3515625,10.4765625 6.3046875,10.4609375 C5.79427083,10.2786458 5.33854167,10.0625 4.9375,9.8125 C4.27083333,9.40104167 3.58203125,8.83984375 2.87109375,8.12890625 C2.16015625,7.41796875 1.59895833,6.72916667 1.1875,6.0625 C0.9375,5.66145833 0.721354167,5.20572917 0.5390625,4.6953125 C0.5234375,4.6484375 0.4765625,4.52083333 0.3984375,4.3125 C0.3203125,4.10416667 0.266927083,3.95963542 0.23828125,3.87890625 C0.209635417,3.79817708 0.171875,3.67447917 0.125,3.5078125 C0.078125,3.34114583 0.0455729167,3.19140625 0.02734375,3.05859375 C0.00911458333,2.92578125 0,2.7890625 0,2.6484375 C0,2.16927083 0.1328125,1.68489583 0.3984375,1.1953125 C0.690104167,0.669270833 0.966145833,0.3515625 1.2265625,0.2421875 C1.35677083,0.184895833 1.53515625,0.130208333 1.76171875,0.078125 C1.98828125,0.0260416667 2.171875,0 2.3125,0 C2.38541667,0 2.44010417,0.0078125 2.4765625,0.0234375 C2.5703125,0.0546875 2.70833333,0.252604167 2.890625,0.6171875 C2.94791667,0.716145833 3.02604167,0.856770833 3.125,1.0390625 C3.22395833,1.22135417 3.31510417,1.38671875 3.3984375,1.53515625 C3.48177083,1.68359375 3.5625,1.82291667 3.640625,1.953125 C3.65625,1.97395833 3.70182292,2.0390625 3.77734375,2.1484375 C3.85286458,2.2578125 3.90885417,2.35026042 3.9453125,2.42578125 C3.98177083,2.50130208 4,2.57552083 4,2.6484375 C4,2.75260417 3.92578125,2.8828125 3.77734375,3.0390625 C3.62890625,3.1953125 3.46744792,3.33854167 3.29296875,3.46875 C3.11848958,3.59895833 2.95703125,3.73697917 2.80859375,3.8828125 C2.66015625,4.02864583 2.5859375,4.1484375 2.5859375,4.2421875 C2.5859375,4.2890625 2.59895833,4.34765625 2.625,4.41796875 C2.65104167,4.48828125 2.67317708,4.54166667 2.69140625,4.578125 C2.70963542,4.61458333 2.74609375,4.67708333 2.80078125,4.765625 C2.85546875,4.85416667 2.88541667,4.90364583 2.890625,4.9140625 C3.28645833,5.62760417 3.73958333,6.23958333 4.25,6.75 C4.76041667,7.26041667 5.37239583,7.71354167 6.0859375,8.109375 C6.09635417,8.11458333 6.14583333,8.14453125 6.234375,8.19921875 C6.32291667,8.25390625 6.38541667,8.29036458 6.421875,8.30859375 C6.45833333,8.32682292 6.51171875,8.34895833 6.58203125,8.375 C6.65234375,8.40104167 6.7109375,8.4140625 6.7578125,8.4140625 C6.8515625,8.4140625 6.97135417,8.33984375 7.1171875,8.19140625 C7.26302083,8.04296875 7.40104167,7.88151042 7.53125,7.70703125 C7.66145833,7.53255208 7.8046875,7.37109375 7.9609375,7.22265625 C8.1171875,7.07421875 8.24739583,7 8.3515625,7 C8.42447917,7 8.49869792,7.01822917 8.57421875,7.0546875 C8.64973958,7.09114583 8.7421875,7.14713542 8.8515625,7.22265625 C8.9609375,7.29817708 9.02604167,7.34375 9.046875,7.359375 C9.17708333,7.4375 9.31640625,7.51822917 9.46484375,7.6015625 C9.61328125,7.68489583 9.77864583,7.77604167 9.9609375,7.875 C10.1432292,7.97395833 10.2838542,8.05208333 10.3828125,8.109375 C10.7473958,8.29166667 10.9453125,8.4296875 10.9765625,8.5234375 C10.9921875,8.55989583 11,8.61458333 11,8.6875 Z" id="Path">
	</path>
</svg>
