<?xml version="1.0" encoding="UTF-8"?>
<svg width="12px" height="13px" viewBox="0 0 12 13" version="1.1" xmlns="http://www.w3.org/2000/svg" xmlns:xlink="http://www.w3.org/1999/xlink">
    <title>user</title>
    <defs>
        <filter color-interpolation-filters="auto" id="filter-1">
            <feColorMatrix in="SourceGraphic" type="matrix" values="0 0 0 0 0.584314 0 0 0 0 0.619608 0 0 0 0 0.678431 0 0 0 1.000000 0"></feColorMatrix>
        </filter>
    </defs>
    <g id="Desktop" stroke="none" stroke-width="1" fill="none" fill-rule="evenodd">
        <g id="Homepage-V.1" transform="translate(-209.000000, -482.000000)">
            <g id="Group-5" transform="translate(-85.000000, 20.000000)">
                <g id="Hero" transform="translate(0.000000, 72.000000)">
                    <g id="Estimate" transform="translate(250.000000, 297.000000)">
                        <g id="Group-3" transform="translate(31.000000, 74.000000)" filter="url(#filter-1)">
                            <g transform="translate(13.208214, 19.261250)">
                                <g id="Group_4732" transform="translate(0.000000, 6.653036)" fill="#262626" fill-rule="nonzero">
                                    <path d="M5.11892857,0.102142857 C4.87003764,0.109762656 4.62189448,0.133382841 4.37603571,0.172857143 C4.1323123,0.215509577 3.89203008,0.275908386 3.65710714,0.353571429 C3.5041825,0.401278759 3.35457189,0.459023203 3.20925,0.526428571 C3.01750915,0.608835261 2.83118337,0.703310307 2.65139286,0.809285714 C2.54532143,0.876071429 2.43925,0.942857143 2.33710714,1.01357143 C1.06859546,1.90203332 0.275664477,3.32149553 0.18425,4.8675 L10.2889286,4.8675 C10.1985402,3.23803446 9.32427612,1.75335227 7.94317857,0.883928571 C7.78603571,0.785714286 7.62509524,0.695357143 7.46035714,0.612857143 C7.22887236,0.499025301 6.98841933,0.404420827 6.74142857,0.33 C6.66678571,0.306428571 6.58782143,0.282857143 6.50964286,0.263214286 C6.15783777,0.17015378 5.79685041,0.116137423 5.43321429,0.102142857 L5.11892857,0.102142857 Z" id="Path_2738"></path>
                                </g>
                                <g id="Group_4733" transform="translate(2.357143, 7.045893)" fill="#262626" fill-rule="nonzero">
                                    <path d="M0.8525,0.133571429 C0.660759154,0.215978118 0.474433368,0.310453164 0.294642857,0.416428571 L0.8525,0.133571429 Z" id="Path_2739"></path>
                                </g>
                                <g id="Group_4734" transform="translate(3.535714, 6.653036)" fill="#262626" fill-rule="nonzero">
                                    <path d="M0.840714286,0.172857143 C0.596990868,0.215509577 0.356708651,0.275908386 0.121785714,0.353571429 C0.356172331,0.274075745 0.596596868,0.213641162 0.840714286,0.172857143 Z" id="Path_2740"></path>
                                </g>
                                <g id="Group_4735" transform="translate(4.321429, 6.260179)" fill="#262626" fill-rule="nonzero">
                                    <path d="M0.7975,0.495 C0.548609073,0.502619799 0.300465912,0.526239984 0.0546071429,0.565714286 L0.7975,0.495 Z" id="Path_2741"></path>
                                </g>
                                <g id="Group_4736" transform="translate(2.357143, 6.653036)">
                                    <path d="M0.8525,0.526428571 C0.660759154,0.608835261 0.474433368,0.703310307 0.294642857,0.809285714 M2.76178571,0.102142857 C2.51289479,0.109762656 2.26475163,0.133382841 2.01889286,0.172857143 M1.29996429,0.353571429 C1.53488722,0.275908386 1.77516944,0.215509577 2.01889286,0.172857143 C1.77490828,0.213661815 1.53461593,0.274096196 1.30035714,0.353571429 L1.29996429,0.353571429 Z" id="Path_2742"></path>
                                </g>
                                <path d="M3.905,0.410535714 C3.90414422,0.434289741 3.90138538,0.457936925 3.89675,0.48125 C3.89570247,0.535267078 3.89044848,0.589120472 3.88103571,0.642321429 C3.87317857,0.689464286 3.86532143,0.736607143 3.85746429,0.779821429 C3.83026946,0.920492028 3.79083374,1.05851705 3.73960714,1.19232143 C3.69644662,1.30519005 3.6465963,1.41538549 3.59032143,1.52232143 C3.55889286,1.57732143 3.52785714,1.63232143 3.49210714,1.68732143 C3.4603208,1.74202607 3.42488334,1.79452601 3.38603571,1.84446429 C3.35011689,1.89679421 3.31074358,1.94666707 3.26817857,1.99375 C3.1235862,2.16656902 2.95704756,2.31976872 2.77278571,2.44946429 C2.7335,2.47696429 2.69853571,2.50446429 2.65885714,2.52803571 C2.58050389,2.57849846 2.49930999,2.62440777 2.41567857,2.66553571 L2.26207143,2.73625 L2.22671429,2.74803571 C2.21309283,2.75618529 2.19859666,2.76277445 2.1835,2.76767857 L2.1835,2.76375 C2.31119018,1.73558679 2.96018408,0.84600476 3.90028571,0.410535714 L3.905,0.410535714 Z" id="Path_2743" fill="#262626" fill-rule="nonzero"></path>
                                <path d="M4.49428571,0.210178571 L4.49821429,0.210178571 L4.49821429,0.265178571 C4.49896735,0.246755986 4.49764958,0.22830709 4.49428571,0.210178571 Z" id="Path_2744" fill="#262626" fill-rule="nonzero"></path>
                                <path d="M4.62785714,0.182678571 C4.58464286,0.190535714 4.54103571,0.198392857 4.49821429,0.210178571 L4.49821429,0.20625 C4.54064553,0.194570324 4.58403025,0.186682193 4.62785714,0.182678571 Z" id="Path_2745" fill="#262626" fill-rule="nonzero"></path>
                                <path d="M4.49428571,0.210178571 C4.49764958,0.22830709 4.49896735,0.246755986 4.49821429,0.265178571 L4.49821429,0.210178571 L4.49428571,0.210178571 Z" id="Path_2746" fill="#FFFFFF" fill-rule="nonzero"></path>
                                <path d="M8.18321429,3.37267857 C8.17496429,3.46303571 8.1675,3.55339286 8.15178571,3.64375 C8.13020053,3.77264711 8.10001405,3.89995532 8.06142857,4.02482143 C8.05327665,4.06128784 8.04142974,4.09682858 8.02607143,4.13089286 C8.01538648,4.17139125 8.00105408,4.21083822 7.98325,4.24875 C7.97025899,4.29218221 7.95315785,4.33427732 7.93217857,4.37446429 C7.73201897,4.82879105 7.42140297,5.22583933 7.02860714,5.52946429 C6.96614286,5.58053571 6.89896429,5.62767857 6.82825,5.67482143 C6.60252323,5.82201552 6.35808489,5.9382889 6.10146429,6.02053571 C6.04504862,6.04036947 5.98728086,6.05612431 5.92860714,6.06767857 L5.88578571,6.07946429 C5.82292857,6.09517857 5.76007143,6.10696429 5.69721429,6.11875 C5.62573535,6.13178228 5.55360745,6.1409622 5.48114286,6.14625 C5.45769595,6.15081392 5.43391341,6.15344182 5.41003571,6.15410714 C5.3949255,6.15383576 5.38005761,6.15792784 5.36721429,6.16589286 C5.324,6.16196429 5.28078571,6.16196429 5.23757143,6.16196429 L5.13935714,6.16589286 C5.13180548,6.16266053 5.12358129,6.16131231 5.11539286,6.16196429 C5.09057803,6.16261164 5.06575083,6.16129803 5.04114286,6.15803571 C5.02922062,6.15870361 5.01727055,6.15737582 5.00578571,6.15410714 C4.94292857,6.15410714 4.88007143,6.14625 4.81721429,6.14232143 L4.73078571,6.13053571 C4.66792857,6.11875 4.60507143,6.11089286 4.53828571,6.09517857 C4.4715,6.07946429 4.40864286,6.06375 4.34185714,6.04803571 C4.28304102,6.03251854 4.22540668,6.01282571 4.16939286,5.98910714 C4.11358596,5.97404521 4.05957909,5.95296936 4.00832143,5.92625 C3.9569292,5.90940229 3.90700088,5.88837984 3.85903571,5.86339286 C3.79374922,5.83403495 3.73072058,5.79989443 3.67046429,5.76125 C3.62153411,5.73569453 3.57441191,5.70681742 3.52942857,5.67482143 C3.43466911,5.61879007 3.34513117,5.55436483 3.26189286,5.48232143 C3.19677615,5.43145078 3.13509401,5.37633057 3.07725,5.31732143 C3.01693652,5.26235338 2.96049261,5.20328418 2.90832143,5.14053571 C2.85145455,5.08016555 2.7989418,5.01583743 2.75117857,4.94803571 C2.74482678,4.9424625 2.73950728,4.93581311 2.73546429,4.92839286 C2.59108454,4.73210901 2.47227287,4.51824799 2.38189286,4.29196429 C2.37796429,4.28803571 2.37796429,4.28803571 2.37796429,4.28410714 C2.31402663,4.12776161 2.26406934,3.96605776 2.22867857,3.80089286 L2.22867857,3.79303571 C2.20191099,3.66060949 2.18224008,3.52684729 2.16975,3.39232143 C2.20903571,3.38053571 2.24439286,3.36875 2.27975,3.35696429 C2.34385061,3.33685206 2.40680197,3.31324531 2.46832143,3.28625 C2.47617857,3.28625 2.47971429,3.28232143 2.48796429,3.27839286 C2.54689286,3.25482143 2.60582143,3.22732143 2.66042857,3.19982143 C2.76342419,3.15110488 2.86327367,3.09599742 2.95939286,3.03482143 C2.96725,3.02696429 2.97903571,3.02303571 2.9865,3.01517857 C3.07918181,2.95952553 3.16720728,2.89646251 3.24971429,2.82660714 C3.29685714,2.79125 3.34007143,2.75589286 3.38367857,2.71660714 L3.39507143,2.70482143 C3.45561657,2.65297085 3.51331952,2.59789077 3.56792857,2.53982143 C3.58335609,2.52507624 3.5977923,2.50932764 3.61114286,2.49267857 C3.6264717,2.47795595 3.6407787,2.46220512 3.65396429,2.44553571 C3.66967857,2.42982143 3.68539286,2.41017857 3.70110714,2.39446429 C3.70503571,2.39053571 3.70935714,2.38267857 3.71289286,2.37875 C3.72829866,2.36410241 3.74261077,2.34834597 3.75571429,2.33160714 C3.77575,2.30803571 3.795,2.28446429 3.81464286,2.25696429 L3.81464286,2.25303571 C3.84327925,2.21955761 3.86953406,2.18411363 3.89321429,2.14696429 C3.90858532,2.13036819 3.92178619,2.11188697 3.9325,2.09196429 C3.93642857,2.08803571 3.93642857,2.08410714 3.94075,2.08017857 C3.97217857,2.03696429 3.99928571,1.99375 4.02717857,1.94660714 C4.03990379,1.92965382 4.0504617,1.91117748 4.05860714,1.89160714 C4.06734822,1.87906297 4.07522363,1.86593728 4.08217857,1.85232143 C4.12539286,1.77767857 4.16467857,1.69910714 4.20435714,1.61660714 C4.26725112,1.75883933 4.34202799,1.89551411 4.42789286,2.02517857 C4.46744048,2.08803571 4.51065476,2.15089286 4.55753571,2.21375 L4.55753571,2.21767857 C4.60467857,2.27660714 4.65182143,2.33553571 4.70289286,2.39053571 C4.75396429,2.44553571 4.79717857,2.50053571 4.84825,2.55160714 L4.86789286,2.57125 C4.91896429,2.62232143 4.97042857,2.66946429 5.02503571,2.71660714 C5.07964286,2.76375 5.14289286,2.81482143 5.20182143,2.86196429 C5.20967857,2.86982143 5.21753571,2.87375 5.22539286,2.88160714 C5.28078571,2.92089286 5.33539286,2.96017857 5.39039286,2.99553571 C5.44539286,3.03089286 5.51257143,3.07410714 5.57542857,3.10946429 C5.63828571,3.14482143 5.70075,3.17625 5.76360714,3.20767857 C5.79503571,3.22339286 5.83039286,3.23910714 5.86575,3.25482143 C5.92860714,3.28232143 5.99146429,3.30982143 6.05825,3.33339286 C6.11325,3.35303571 6.17217857,3.37267857 6.22717857,3.38839286 L6.39217857,3.43553571 C6.43539286,3.44339286 6.479,3.45517857 6.52182143,3.46303571 C6.60470192,3.48220084 6.68886311,3.49533051 6.77364286,3.50232143 C6.81511675,3.50972362 6.85694679,3.51496876 6.89896429,3.51803571 C6.98932143,3.52589286 7.084,3.52982143 7.17789286,3.52982143 C7.28156183,3.53057812 7.38518765,3.52533124 7.48825,3.51410714 C7.54364286,3.51017857 7.59825,3.50232143 7.65364286,3.49446429 C7.83343576,3.46969101 8.01066143,3.42893437 8.18321429,3.37267857 L8.18321429,3.37267857 Z" id="Path_2747" fill="#262626" fill-rule="nonzero"></path>
                                <path d="M4.02678571,1.94660714 C3.99928571,1.99375 3.97178571,2.03696429 3.94035714,2.08017857 C3.95175,2.06053571 3.96746429,2.03696429 3.97964286,2.01339286 C3.99662417,1.9920529 4.01236444,1.96975419 4.02678571,1.94660714 Z" id="Path_2748" fill="#262626" fill-rule="nonzero"></path>
                                <path d="M2.18428571,2.76375 L2.18428571,2.76767857 C2.19938238,2.76277445 2.21387854,2.75618529 2.2275,2.74803571 C2.21404304,2.75558332 2.19944754,2.76089078 2.18428571,2.76375 L2.18428571,2.76375 Z" id="Path_2749-path"></path>
                                <path d="M3.90107143,0.410535714 L3.90539286,0.410535714 C3.90453707,0.434289741 3.90177823,0.457936925 3.89714286,0.48125 C3.89609533,0.535267078 3.89084134,0.589120472 3.88142857,0.642321429 C3.87357143,0.689464286 3.86571429,0.736607143 3.85785714,0.779821429 C3.83066232,0.920492028 3.7912266,1.05851705 3.74,1.19232143 C3.69683948,1.30519005 3.64698916,1.41538549 3.59071429,1.52232143 C3.55928571,1.57732143 3.52825,1.63232143 3.4925,1.68732143 C3.46071365,1.74202607 3.42527619,1.79452601 3.38642857,1.84446429 C3.35050975,1.89679421 3.31113644,1.94666707 3.26857143,1.99375 C3.12397906,2.16656902 2.95744041,2.31976872 2.77317857,2.44946429 C2.73389286,2.47696429 2.69892857,2.50446429 2.65925,2.52803571 C2.58089674,2.57849846 2.49970285,2.62440777 2.41607143,2.66553571 L2.26246429,2.73625 L2.22710714,2.74803571 C2.21348569,2.75618529 2.19898952,2.76277445 2.18389286,2.76767857 L2.18389286,2.76375 C2.3116613,1.73550159 2.96081767,0.845900433 3.90107143,0.410535714 Z" id="Path_2750" fill="#262626" fill-rule="nonzero"></path>
                                <path d="M8.1675,2.75196429 C8.08906802,2.78350567 8.00908394,2.81104118 7.92785714,2.83446429 C7.85688727,2.85567354 7.784741,2.8727263 7.71178571,2.88553571 C7.68600671,2.89265436 7.65974823,2.89790606 7.63321429,2.90125 C7.56642857,2.91303571 7.49964286,2.92089286 7.43285714,2.92875 C7.35035714,2.93660714 7.26392857,2.94053571 7.1775,2.94053571 C5.69945758,2.94032058 4.50077434,1.74321942 4.49860714,0.265178571 L4.49860714,0.210178571 C4.54142857,0.198392857 4.58503571,0.190535714 4.62825,0.182678571 C4.80813284,0.147609273 4.99105532,0.130501415 5.17432143,0.131607143 C6.68683561,0.133925153 7.96517821,1.2530412 8.1675,2.75196429 L8.1675,2.75196429 Z" id="Path_2751" fill="#262626" fill-rule="nonzero"></path>
                                <path d="M4.49428571,0.210178571 L4.49821429,0.210178571 L4.49821429,0.265178571 C4.49896735,0.246755986 4.49764958,0.22830709 4.49428571,0.210178571 Z" id="Path_2752" fill="#262626" fill-rule="nonzero"></path>
                                <path d="M4.62785714,0.182678571 C4.58464286,0.190535714 4.54103571,0.198392857 4.49821429,0.210178571 L4.49821429,0.20625 C4.54064553,0.194570324 4.58403025,0.186682193 4.62785714,0.182678571 Z" id="Path_2753" fill="#262626" fill-rule="nonzero"></path>
                                <path d="M3.97964286,2.01339286 C3.96785714,2.03696429 3.95214286,2.06053571 3.94035714,2.08017857 C3.97178571,2.03696429 3.99889286,1.99375 4.02678571,1.94660714 C4.01236444,1.96975419 3.99662417,1.9920529 3.97964286,2.01339286 L3.97964286,2.01339286 Z" id="Path_2754-path" fill="#FFFFFF" fill-rule="nonzero"></path>
                                <path d="M4.49821429,0.20625 L4.49821429,0.210178571 C4.54103571,0.198392857 4.58464286,0.190535714 4.62785714,0.182678571 C4.58403025,0.186682193 4.54064553,0.194570324 4.49821429,0.20625 Z" id="Path_2754-path" fill="#FFFFFF" fill-rule="nonzero"></path>
                            </g>
                        </g>
                    </g>
                </g>
            </g>
        </g>
    </g>
</svg>