<?xml version="1.0" encoding="UTF-8"?>
<svg width="16px" height="21px" viewBox="0 0 16 21" version="1.1" xmlns="http://www.w3.org/2000/svg" xmlns:xlink="http://www.w3.org/1999/xlink">
    <title>yelp-black</title>
    <g id="Desktop" stroke="none" stroke-width="1" fill="none" fill-rule="evenodd">
        <g id="Listing" transform="translate(-488.000000, -494.000000)" fill="#FFFFFF" fill-rule="nonzero">
            <g id="Group-7" transform="translate(165.000000, 168.000000)">
                <g id="Group" transform="translate(0.000000, 14.000000)">
                    <g id="yelp-black" transform="translate(323.000000, 312.000000)">
                        <path d="M0.40753392,10.1099784 C0.0665654784,10.6566285 -0.0770709647,12.3779543 0.0403885898,13.5204733 C0.0820028116,13.8978131 0.150465033,14.2121533 0.249131255,14.3998391 C0.385384587,14.6590548 0.614933918,14.8139285 0.876701026,14.8224593 C1.04450058,14.8316468 1.14853613,14.8027722 4.30048055,13.7888765 C4.30048055,13.7888765 5.70126987,13.3426313 5.70731076,13.33935 C6.05633342,13.2514134 6.29125253,12.9298544 6.31474453,12.5190463 C6.33689431,12.0990507 6.11942631,11.7269609 5.76167787,11.5930876 C5.76167787,11.5930876 4.77501699,11.1901545 4.77233255,11.1901545 C1.38546902,9.79301271 1.23377836,9.73788858 1.0626228,9.73591983 C0.801526805,9.72607608 0.567950363,9.85732477 0.40753392,10.1099784 Z M7.98455029,20.5204207 C8.03958851,20.3622662 8.04562896,20.2526733 8.05502585,16.9406151 C8.05502585,16.9406151 8.06308051,15.4778491 8.06375163,15.4620996 C8.08590096,15.1044468 7.85500896,14.7782941 7.47376896,14.6306396 C7.08246052,14.4803601 6.66161964,14.5735463 6.42535786,14.8688557 C6.42535786,14.8688557 5.73469565,15.6891594 5.73201076,15.6891594 C3.35798456,18.4762238 3.260661,18.6048471 3.20226678,18.7702203 C3.16736456,18.868657 3.15259834,18.9710311 3.16535078,19.074061 C3.17944589,19.2210593 3.24522323,19.368058 3.35664234,19.5032441 C3.906353,20.1581746 6.54550231,21.1294141 7.38785563,20.9856971 C7.68116896,20.9318851 7.89326718,20.7671681 7.98455029,20.5204207 Z M13.3362778,19.3679267 C14.1316471,19.0509615 15.8680351,16.8427034 15.9901933,15.9928689 C16.0318076,15.6975594 15.9398533,15.4422808 15.7358093,15.2801888 C15.6029124,15.1797839 15.499548,15.1404093 12.3502885,14.1068265 C12.3502885,14.1068265 10.9689636,13.6500813 10.9508414,13.6415501 C10.617256,13.5122702 10.2346734,13.6310501 9.97827561,13.9493283 C9.71248139,14.2741685 9.67086717,14.7013825 9.88363694,15.0262227 L10.4400596,15.9311818 C12.3106876,18.9689311 12.4529814,19.1835222 12.5878925,19.2885213 C12.7959636,19.4525821 13.0604156,19.4794879 13.3362778,19.3679267 Z M11.7099658,11.5490537 C15.2894631,10.6821566 15.4277298,10.6355633 15.5693524,10.5430329 C15.7854782,10.3980034 15.894212,10.1532248 15.8760898,9.85529039 C15.8760898,9.84544664 15.877432,9.83625914 15.8760898,9.82510333 C15.7841356,8.94705003 14.2430658,6.65938706 13.4846125,6.28860975 C13.2161334,6.15932981 12.946312,6.16851688 12.7248165,6.31748431 C12.5865498,6.40804594 12.4838565,6.54388793 10.5675872,9.16492284 C10.5675872,9.16492284 9.70107117,10.3455039 9.69100317,10.3566601 C9.46212495,10.6335946 9.46011117,11.0325902 9.68227739,11.3738367 C9.91316939,11.7268952 10.3038067,11.898831 10.6615552,11.7997386 C10.6615552,11.7997386 10.6467885,11.8246756 10.6427614,11.8299256 C10.8192863,11.7623327 11.1354205,11.6855519 11.7099658,11.5490537 Z M8.11496407,8.59281022 C8.05388496,7.17466886 7.6276743,0.856360879 7.57733474,0.563020632 C7.50350274,0.298554511 7.29744497,0.10890045 6.9987623,0.0334321389 C6.08593342,-0.193627733 2.59369168,0.786143005 1.94598591,1.4541985 C1.73858591,1.67075881 1.66072724,1.93850574 1.72314857,2.17409686 C1.82449924,2.38409467 6.15305298,9.1932724 6.15305298,9.1932724 C6.79337564,10.2307927 7.31489608,10.0700132 7.48538052,10.0168574 C7.65519341,9.96370158 8.1740294,9.80292208 8.11496407,8.59281022 Z" id="Yelp"></path>
                    </g>
                </g>
            </g>
        </g>
    </g>
</svg>