<?xml version="1.0" encoding="UTF-8"?>
<svg width="14px" height="14px" viewBox="0 0 14 14" version="1.1" xmlns="http://www.w3.org/2000/svg" xmlns:xlink="http://www.w3.org/1999/xlink">
    <title>close</title>
    <g id="Desktop" stroke="none" stroke-width="1" fill="none" fill-rule="evenodd">
        <g id="CTA-Pop-Up" transform="translate(-903.000000, -136.000000)" fill="#000000" fill-rule="nonzero">
            <g id="Group-36" transform="translate(513.000000, 126.000000)">
                <g id="close" transform="translate(390.000000, 10.000000)">
                    <path d="M8.34225615,7.10365563 C8.31482569,7.07629524 8.29940958,7.039145 8.29940958,7.00040257 C8.29940958,6.96166014 8.31482569,6.9245099 8.34225615,6.89714951 L13.7459937,1.49415607 C14.0876712,1.15200552 14.0872794,0.597661663 13.7451187,0.25599439 C13.4029579,-0.0856728836 12.8485976,-0.085281127 12.5069201,0.256869402 L7.10376593,5.65752944 C7.07640473,5.68495909 7.03925338,5.70037473 7.0005098,5.70037473 C6.96176621,5.70037473 6.92461486,5.68495909 6.89725366,5.65752944 L1.49409945,0.256869402 C1.152422,-0.0849589637 0.598322818,-0.0850895511 0.256484281,0.256577727 C-0.0853542569,0.598245005 -0.0854848483,1.1523277 0.256192597,1.49415607 L5.65876344,6.89714951 C5.6861939,6.9245099 5.70161001,6.96166014 5.70161001,7.00040257 C5.70161001,7.039145 5.6861939,7.07629524 5.65876344,7.10365563 L0.256192597,12.5072324 C0.0351660448,12.7283566 -0.0510990552,13.0505965 0.0298925251,13.3525675 C0.110884105,13.6545385 0.346827818,13.890364 0.64884595,13.9712109 C0.950864082,14.0520577 1.2730729,13.9656433 1.49409945,13.7445191 L6.89725366,8.3409423 C6.92461486,8.31351265 6.96176621,8.29809701 7.0005098,8.29809701 C7.03925338,8.29809701 7.07640473,8.31351265 7.10376593,8.3409423 L12.5069201,13.7445191 C12.8485976,14.0863474 13.4026968,14.086478 13.7445353,13.7448108 C14.0863738,13.4031435 14.0865044,12.8490608 13.744827,12.5072324 L8.34225615,7.10365563 Z" id="Path"></path>
                </g>
            </g>
        </g>
    </g>
</svg>