<?xml version="1.0" encoding="UTF-8"?>
<svg width="25px" height="24px" viewBox="0 0 25 24" version="1.1" xmlns="http://www.w3.org/2000/svg" xmlns:xlink="http://www.w3.org/1999/xlink">
    <title>times-circle</title>
    <g id="Desktop" stroke="none" stroke-width="1" fill="none" fill-rule="evenodd">
        <g id="Listing" transform="translate(-185.000000, -800.000000)" fill="#D1D5D8" fill-rule="nonzero">
            <g id="Group-21" transform="translate(165.000000, 683.000000)">
                <g id="Group-10" transform="translate(20.000000, -33.468037)">
                    <g id="Group-31" transform="translate(0.500000, 144.468037)">
                        <g id="times-circle" transform="translate(0.000000, 6.000000)">
                            <path d="M12,0 C5.37096774,0 0,5.37096774 0,12 C0,18.6290323 5.37096774,24 12,24 C18.6290323,24 24,18.6290323 24,12 C24,5.37096774 18.6290323,0 12,0 Z M17.883871,15.15 C18.1112903,15.3774194 18.1112903,15.7451613 17.883871,15.9725806 L15.9677419,17.883871 C15.7403226,18.1112903 15.3725806,18.1112903 15.1451613,17.883871 L12,14.7096774 L8.85,17.883871 C8.62258065,18.1112903 8.25483871,18.1112903 8.02741935,17.883871 L6.11612903,15.9677419 C5.88870968,15.7403226 5.88870968,15.3725806 6.11612903,15.1451613 L9.29032258,12 L6.11612903,8.85 C5.88870968,8.62258065 5.88870968,8.25483871 6.11612903,8.02741935 L8.03225806,6.11129032 C8.25967742,5.88387097 8.62741935,5.88387097 8.85483871,6.11129032 L12,9.29032258 L15.15,6.11612903 C15.3774194,5.88870968 15.7451613,5.88870968 15.9725806,6.11612903 L17.8887097,8.03225806 C18.116129,8.25967742 18.116129,8.62741935 17.8887097,8.85483871 L14.7096774,12 L17.883871,15.15 Z" id="Shape"></path>
                        </g>
                    </g>
                </g>
            </g>
        </g>
    </g>
</svg>