<?xml version="1.0" encoding="UTF-8"?>
<svg width="26px" height="26px" viewBox="0 0 26 26" version="1.1" xmlns="http://www.w3.org/2000/svg" xmlns:xlink="http://www.w3.org/1999/xlink">
	<title>
		detox
	</title>
	<g id="Desktop" stroke="none" stroke-width="1" fill="none" fill-rule="evenodd">
		<g id="Listing" transform="translate(-944.000000, -997.000000)" fill="#FB9C00" fill-rule="nonzero">
			<g id="Group-21" transform="translate(165.000000, 683.000000)">
				<g id="Group-16" transform="translate(759.000000, 0.000000)">
					<g id="Group-14" transform="translate(0.000000, 233.000000)">
						<g id="Group-13" transform="translate(20.000000, 76.000000)">
							<g id="detox" transform="translate(0.000000, 5.000000)">
								<path d="M26,13 C26,20.1797218 20.1797218,26 13,26 C5.82027823,26 0,20.1797218 0,13 C0,5.82027823 5.82027823,0 13,0 C20.1797218,0 26,5.82027823 26,13 Z" id="Path" opacity="0.200000003">
								</path>
								<g id="3" transform="translate(6.000000, 4.433138)">
									<path d="M10.2582795,0.234372289 C9.58244377,-0.0423180632 7.66194394,-0.514997414 5.70765233,1.84263496 L5.62880483,1.94062946 C4.93957897,2.80017132 4.20639862,3.62178369 3.43233874,4.40202071 C1.83286088,5.95263956 0.0193683695,7.71077617 0.00247247653,10.3687329 C-0.058697184,12.4322347 1.01915439,14.3555808 2.79029481,15.3433948 C2.79801972,15.3505815 2.80801824,15.354675 2.81845463,15.3549236 C4.27012487,16.3726124 5.9764465,16.9429563 7.73515948,16.998349 C9.22488474,17.0359074 10.6615074,16.4312236 11.6944304,15.331866 C12.7701356,14.1789896 12.9334625,12.5309527 13.0855256,11.0777519 L13.1024215,10.9105848 C13.2094288,9.85570283 13.4178115,8.79505648 13.6149302,7.77533725 C13.7444654,7.11762123 13.8683686,6.4552937 13.9753759,5.78662535 C14.0791871,4.80120048 13.8528003,3.80891427 13.333332,2.97245389 C12.7942009,1.9834578 10.5966286,-0.694934386 10.2582795,0.234372289 Z M3.4548666,8.78871566 C3.93010834,7.77615889 4.90484315,7.10737846 6.00051447,7.04210782 C6.3315643,7.04285745 6.65773376,7.12384781 6.95231644,7.27844749 C7.71402394,7.73366279 8.16544461,8.58442808 8.12376502,9.48620592 C8.11951031,10.0431275 7.98428593,10.5908109 7.72952751,11.0829398 C7.35388064,11.8528261 6.69584713,12.4392937 5.89913911,12.71426 C5.34909354,12.9006375 4.74916,12.8549994 4.23207768,12.5874436 C3.65702469,12.2616377 3.25273228,11.6916098 3.12821267,11.0310604 C2.97412182,10.267607 3.08988284,9.47295523 3.4548666,8.78871566 L3.4548666,8.78871566 Z M13.1418452,5.64712729 C13.0404699,6.30426688 12.9109347,6.95564208 12.7870315,7.60701729 C12.5842808,8.64460611 12.3758981,9.7225456 12.2632588,10.8172018 L12.2463629,10.9901333 C12.1111957,12.3044124 11.9591327,13.7916231 11.0861782,14.7312174 C9.72887484,16.1844182 7.80837501,16.3855951 5.96109072,15.8840939 C6.52008333,15.8066617 7.06366351,15.6395589 7.57183251,15.3889334 C8.71816421,14.8175465 9.6342201,13.8552896 10.1625361,12.6675685 C10.6435905,11.5747702 10.9807014,10.4214162 11.1650257,9.23776105 C11.4072002,7.90618873 11.7000624,6.60401476 12.0492441,5.26033724 C12.2832914,4.46269128 12.3372136,3.6210436 12.2069391,2.79894599 C12.3518028,2.99117387 12.4835285,3.19340799 12.6011766,3.40420613 C13.0214708,4.06888982 13.2118428,4.85863312 13.1418452,5.64712729 Z" id="Path_1732">
									</path>
								</g>
							</g>
						</g>
					</g>
				</g>
			</g>
		</g>
	</g>
</svg>
