<?xml version="1.0" encoding="UTF-8"?>
<svg width="44px" height="42px" viewBox="0 0 44 42" version="1.1" xmlns="http://www.w3.org/2000/svg" xmlns:xlink="http://www.w3.org/1999/xlink">
    <title>display</title>
    <g id="Desktop" stroke="none" stroke-width="1" fill="none" fill-rule="evenodd">
        <g id="Homepage-V.1" transform="translate(-1086.000000, -1234.000000)" fill-rule="nonzero">
            <g id="Group-21-Copy" transform="translate(191.000000, 1058.000000)">
                <g id="Group-10" transform="translate(0.000000, 155.000000)">
                    <g id="Group-7-Copy-2" transform="translate(776.000000, 0.000000)">
                        <g id="8" transform="translate(119.000000, 21.000000)">
                            <g id="Group_4707">
                                <path d="M42.3426138,0 L1.65738618,0 C0.742037067,0 0,0.74644961 0,1.66724187 L0,26.7193631 L44,26.7193631 L44,1.66724187 C44,1.22506183 43.825383,0.800992339 43.5145628,0.488323837 C43.2037426,0.175655335 42.78218,0 42.3426138,0 L42.3426138,0 Z" id="Path_5989-path" fill="#FCCE81"></path>
                                <polygon id="Path_5989-path" fill="#FB9C00" points="19.8165739 21.7611308 10.73698 21.7611308 10.73698 15.469105 19.8165739 15.469105"></polygon>
                                <polygon id="Path_5989-path" fill="#FB9C00" points="19.8165739 12.033137 10.73698 12.033137 10.73698 5.75560888 19.8165739 5.75560888"></polygon>
                                <polygon id="Path_5989-path" fill="#FB9C00" points="32.3262365 21.7611308 23.2322306 21.7611308 23.2322306 15.469105 32.3262365 15.469105"></polygon>
                                <polygon id="Path_5989-path" fill="#FB9C00" points="32.3262365 12.033137 23.2322306 12.033137 23.2322306 5.75560888 32.3262365 5.75560888"></polygon>
                            </g>
                            <g id="Group_4710" transform="translate(0.000000, 28.894026)" fill="#FB9C00">
                                <g id="Group_4709" transform="translate(-0.000000, 0.000000)">
                                    <path d="M44,0 L44,2.23265433 C43.9936572,3.14844451 43.2530111,3.88701616 42.3426138,3.88540109 L1.65738618,3.88540109 C0.746988892,3.88701616 0.0063428215,3.14844451 -1.31076865e-12,2.23265433 L-1.31076865e-12,0 L44,0 Z" id="Path_5990"></path>
                                </g>
                            </g>
                            <g id="Group_4711" transform="translate(18.577137, 34.954088)" fill="#FB9C00">
                                <rect id="Rectangle_377" x="0" y="0" width="6.71601703" height="2.65308923"></rect>
                            </g>
                            <g id="Group_4713" transform="translate(14.887625, 39.781841)" fill="#FB9C00">
                                <path d="M13.9941332,1.82671718 C13.9945153,1.93065154 13.9536418,2.03044075 13.8805831,2.10393396 C13.8075243,2.17742717 13.708325,2.21854367 13.605005,2.21815928 L0.374739712,2.21815928 C0.164478414,2.21262361 -0.00240890854,2.03828697 0,1.82671718 C0.0579745718,1.18086924 0.259948291,0.556478509 0.590920517,0 L13.3888242,0 C13.7243599,0.555472295 13.9312458,1.17982075 13.9941332,1.82671718 Z" id="Path_5991"></path>
                            </g>
                        </g>
                    </g>
                </g>
            </g>
        </g>
    </g>
</svg>