<?xml version="1.0" encoding="UTF-8"?>
<svg width="21px" height="21px" viewBox="0 0 21 21" version="1.1" xmlns="http://www.w3.org/2000/svg" xmlns:xlink="http://www.w3.org/1999/xlink">
    <title>hyperlink</title>
    <g id="Desktop" stroke="none" stroke-width="1" fill="none" fill-rule="evenodd">
        <g id="Listing" transform="translate(-944.000000, -1909.000000)" fill="#9FADB8" fill-rule="nonzero">
            <g id="Group-21" transform="translate(165.000000, 683.000000)">
                <g id="Group-16" transform="translate(759.000000, 0.000000)">
                    <g id="Group-14-Copy-3" transform="translate(0.000000, 1142.000000)">
                        <g id="Group-13" transform="translate(20.000000, 77.000000)">
                            <g id="hyperlink-3" transform="translate(0.000000, 7.000000)">
                                <path d="M9.14319552,16.1128359 L6.73328207,18.5218633 C5.76231657,19.4496572 4.23333822,19.4496572 3.26237273,18.5218633 L2.47697164,17.7373445 C1.51889169,16.7790659 1.51889169,15.2256023 2.47697164,14.2673236 L7.58383976,9.16046716 C8.54262374,8.20277425 10.0959651,8.20277425 11.0547491,9.16046716 L11.8410307,9.94586646 C12.1858058,10.2906408 12.7447968,10.2906408 13.0895719,9.94586646 C13.434347,9.60109212 13.434347,9.04210246 13.0895719,8.69732811 L12.3032903,7.91192881 C10.6563374,6.26716377 7.98841494,6.26716377 6.34146201,7.91192881 L1.23459389,13.0187853 C0.444098706,13.8092413 7.82036217e-16,14.8813522 7.82036217e-16,15.9992523 C7.82036217e-16,17.1171524 0.444098706,18.1892633 1.23459389,18.9797194 L2.01999499,19.7642382 C2.81025923,20.555433 3.88264728,21 5.00090913,21 C6.11917098,21 7.19155902,20.555433 7.98182327,19.7642382 L10.3908562,17.3560913 C10.6134148,17.1336905 10.7004177,16.8094504 10.6190919,16.5055091 C10.537766,16.2015678 10.3004667,15.9641012 9.99658223,15.8825607 C9.6926978,15.8010201 9.36839555,15.8877936 9.14583701,16.1101944 L9.14319552,16.1128359 Z" id="Path"></path>
                                <path d="M19.7690032,2.0152706 L18.9836021,1.2298713 C17.3349528,-0.409957098 14.6713036,-0.409957098 13.0226543,1.2298713 L10.4648178,3.78329952 C10.1311348,4.12878618 10.135907,4.67795454 10.4755434,5.01759025 C10.8151799,5.35722596 11.3643495,5.36199809 11.709837,5.0283159 L14.2632711,2.47488768 C15.2221543,1.51826557 16.7744167,1.51826557 17.7332999,2.47488768 L18.5195815,3.26116747 C18.9801582,3.72127541 19.2389468,4.34559648 19.2389468,4.99661817 C19.2389468,5.64763986 18.9801582,6.27196093 18.5195815,6.73206887 L13.4127134,11.8389253 C12.9535449,12.3009054 12.3286107,12.5599465 11.6772587,12.5582877 L11.6772587,12.5582877 C11.0265857,12.5600033 10.4022818,12.3012777 9.94356503,11.8398058 C9.72398925,11.6053269 9.3941413,11.509038 9.08290173,11.5885616 C8.77166215,11.6680852 8.52843194,11.9107992 8.44824774,12.2218686 C8.36806354,12.532938 8.46365246,12.8629888 8.6976653,13.0830612 C9.4862302,13.8756158 10.55924,14.3195313 11.6772587,14.3157764 L11.6772587,14.3157764 C12.795563,14.3196685 13.8688971,13.87575 14.6577326,13.0830612 L19.7646007,7.97620476 C20.5555812,7.18582756 21,6.11348497 21,4.99529743 C21,3.87710989 20.5555812,2.8047673 19.7646007,2.0143901 L19.7690032,2.0152706 Z" id="Path"></path>
                            </g>
                        </g>
                    </g>
                </g>
            </g>
        </g>
    </g>
</svg>