<?xml version="1.0" encoding="UTF-8"?>
<svg width="34px" height="47px" viewBox="0 0 34 47" version="1.1" xmlns="http://www.w3.org/2000/svg" xmlns:xlink="http://www.w3.org/1999/xlink">
    <title>6</title>
    <g id="Desktop" stroke="none" stroke-width="1" fill="none" fill-rule="evenodd">
        <g id="Homepage-V.1" transform="translate(-315.000000, -1230.000000)" fill="#FB9C00" fill-rule="nonzero">
            <g id="Group-21-Copy" transform="translate(191.000000, 1058.000000)">
                <g id="Group-10" transform="translate(0.000000, 155.000000)">
                    <g id="6" transform="translate(124.000000, 17.000000)">
                        <path d="M7.24402807,38.254617 C7.24402807,38.9864264 6.65327883,39.5796751 5.92455272,39.5796751 L5.30439931,39.5796751 C4.5756732,39.5796751 3.98492396,38.9864264 3.98492396,38.254617 C3.98492396,37.5228077 4.5756732,36.929559 5.30439931,36.929559 L5.92455272,36.929559 C6.65327883,36.929559 7.24402807,37.5228077 7.24402807,38.254617 Z" id="Path_4932"></path>
                        <path d="M13.2476409,32.6231204 C13.2476409,33.3549298 12.6568917,33.9481785 11.9281655,33.9481785 L5.30439931,33.9481785 C4.5756732,33.9481785 3.98492396,33.3549298 3.98492396,32.6231204 C3.98492396,31.8913111 4.5756732,31.2980624 5.30439931,31.2980624 L11.9281655,31.2980624 C12.6568917,31.2980624 13.2476409,31.8913111 13.2476409,32.6231204 Z" id="Path_4933"></path>
                        <path d="M3.98492396,21.3733778 C3.98492396,20.6415685 4.5756732,20.0483198 5.30439931,20.0483198 L16.7178611,20.0483198 C17.4465872,20.0483198 18.0373364,20.6415685 18.0373364,21.3733778 C18.0373364,22.1051871 17.4465872,22.6984358 16.7178611,22.6984358 L5.30439931,22.6984358 C4.5756732,22.6984358 3.98492396,22.1051871 3.98492396,21.3733778 Z" id="Path_4934"></path>
                        <path d="M19.343617,26.9916238 C19.343617,27.7234332 18.7528678,28.3166819 18.0241416,28.3166819 L5.30439931,28.3166819 C4.5756732,28.3166819 3.98492396,27.7234332 3.98492396,26.9916238 C3.98492396,26.2598145 4.5756732,25.6665658 5.30439931,25.6665658 L18.0241416,25.6665658 C18.7528678,25.6665658 19.343617,26.2598145 19.343617,26.9916238 Z" id="Path_4935"></path>
                        <path d="M26.9833792,15.7418812 C26.9833792,16.4736905 26.39263,17.0669392 25.6639039,17.0669392 L5.30439931,17.0669392 C4.5756732,17.0669392 3.98492396,16.4736905 3.98492396,15.7418812 C3.98492396,15.0100719 4.5756732,14.4168232 5.30439931,14.4168232 L25.6639039,14.4168232 C26.39263,14.4168232 26.9833792,15.0100719 26.9833792,15.7418812 L26.9833792,15.7418812 Z" id="Path_4936"></path>
                        <g id="Group_4011" transform="translate(-0.000000, 0.000000)">
                            <path d="M29.3848244,3.45859332 L23.3944063,3.45859332 L23.3944063,5.53893441 L7.5738969,5.53893441 L7.5738969,3.45859332 L1.58347883,3.45859332 C1.16124672,3.45859332 0.75649766,3.62792101 0.459175882,3.92898891 C0.161854104,4.23005682 -0.00341018263,4.63790968 5.33629282e-05,5.06191352 L5.33629282e-05,44.7209002 C-0.00281394493,45.6024338 0.705665276,46.3198395 1.58347883,46.3242204 L4.20923477,46.3242204 L5.68704716,44.8401554 L30.9682038,19.4387931 L30.9682038,5.06191352 C30.9711172,4.18037995 30.2626379,3.46297419 29.3848244,3.45859332 Z M25.6639039,17.0669392 L5.30439931,17.0669392 C4.5756732,17.0669392 3.98492396,16.4736905 3.98492396,15.7418812 C3.98492396,15.0100719 4.5756732,14.4168232 5.30439931,14.4168232 L25.6639039,14.4168232 C26.39263,14.4168232 26.9833792,15.0100719 26.9833792,15.7418812 C26.9833792,16.4736905 26.39263,17.0669392 25.6639039,17.0669392 Z M5.92455272,39.5796751 L5.30439931,39.5796751 C4.5756732,39.5796751 3.98492396,38.9864264 3.98492396,38.254617 C3.98492396,37.5228077 4.5756732,36.929559 5.30439931,36.929559 L5.92455272,36.929559 C6.65327883,36.929559 7.24402807,37.5228077 7.24402807,38.254617 C7.24402807,38.9864264 6.65327883,39.5796751 5.92455272,39.5796751 Z M5.30439931,33.9481785 C4.5756732,33.9481785 3.98492396,33.3549298 3.98492396,32.6231204 C3.98492396,31.8913111 4.5756732,31.2980624 5.30439931,31.2980624 L11.9281655,31.2980624 C12.6568917,31.2980624 13.2476409,31.8913111 13.2476409,32.6231204 C13.2476409,33.3549298 12.6568917,33.9481785 11.9281655,33.9481785 L5.30439931,33.9481785 Z M18.0241416,28.3166819 L5.30439931,28.3166819 C4.5756732,28.3166819 3.98492396,27.7234332 3.98492396,26.9916238 C3.98492396,26.2598145 4.5756732,25.6665658 5.30439931,25.6665658 L18.0241416,25.6665658 C18.7528678,25.6665658 19.343617,26.2598145 19.343617,26.9916238 C19.343617,27.7234332 18.7528678,28.3166819 18.0241416,28.3166819 Z M3.98492396,21.3733778 C3.98492396,20.6415685 4.5756732,20.0483198 5.30439931,20.0483198 L16.7178611,20.0483198 C17.4465872,20.0483198 18.0373364,20.6415685 18.0373364,21.3733778 C18.0373364,22.1051871 17.4465872,22.6984358 16.7178611,22.6984358 L5.30439931,22.6984358 C4.5756732,22.6984358 3.98492396,22.1051871 3.98492396,21.3733778 Z" id="Path_4937" opacity="0.400000006"></path>
                            <path d="M30.9682149,39.0496519 L30.9682149,44.7474014 C30.9702992,45.1639501 30.8073582,45.5642392 30.5152911,45.8600276 C30.2232241,46.155816 29.8260106,46.3228185 29.4112139,46.3242204 L23.7110804,46.3242204 L30.9682149,39.0496519 Z" id="Path_4938" opacity="0.400000006"></path>
                            <path d="M23.3944063,1.3915028 L23.3944063,5.53893441 L7.5738969,5.53893441 L7.5738969,1.3915028 L10.3579899,1.3915028 C10.5073348,0.575915895 11.2212424,-0.0121892633 12.0469183,0.000191871102 L18.9213849,0.000191871102 C19.7420015,0.00215731606 20.4479472,0.583703585 20.6103133,1.3915028 L23.3944063,1.3915028 Z" id="Path_4939"></path>
                        </g>
                        <path d="M33.5147822,31.3775659 L18.538737,46.4169745 L13.3663937,47 L13.4455622,46.3242204 L13.7358468,43.2898375 L13.8018205,42.706812 L13.8150153,42.5743062 L13.8941838,41.7527702 L15.1344906,40.5204663 L28.3292441,27.2566354 L28.870229,26.7266122 C29.1795515,26.4048388 29.6057967,26.2231017 30.0511594,26.2231017 C30.4965221,26.2231017 30.9227673,26.4048388 31.2320899,26.7266122 L33.5147822,29.005712 C34.1617393,29.6628576 34.1617393,30.7204203 33.5147822,31.3775659 L33.5147822,31.3775659 Z" id="Path_4940"></path>
                    </g>
                </g>
            </g>
        </g>
    </g>
</svg>