<?xml version="1.0" encoding="UTF-8"?>
<svg width="26px" height="26px" viewBox="0 0 26 26" version="1.1" xmlns="http://www.w3.org/2000/svg" xmlns:xlink="http://www.w3.org/1999/xlink">
    <title>5</title>
    <defs>
        <filter color-interpolation-filters="auto" id="filter-1">
            <feColorMatrix in="SourceGraphic" type="matrix" values="0 0 0 0 0.984314 0 0 0 0 0.611765 0 0 0 0 0.000000 0 0 0 1.000000 0"></feColorMatrix>
        </filter>
    </defs>
    <g id="Desktop" stroke="none" stroke-width="1" fill="none" fill-rule="evenodd">
        <g id="Listing" transform="translate(-944.000000, -1193.000000)">
            <g id="Group-21" transform="translate(165.000000, 683.000000)">
                <g id="Group-16" transform="translate(759.000000, 0.000000)">
                    <g id="Group-14" transform="translate(0.000000, 233.000000)">
                        <g id="Group-13" transform="translate(20.000000, 76.000000)">
                            <g id="Group-9-Copy-10" transform="translate(0.000000, 196.000000)">
                                <g id="5" transform="translate(0.000000, 5.000000)">
                                    <path d="M26,13 C26,20.1797218 20.1797218,26 13,26 C5.82027823,26 0,20.1797218 0,13 C0,5.82027823 5.82027823,0 13,0 C20.1797218,0 26,5.82027823 26,13 Z" id="Path" fill="#FB9C00" fill-rule="nonzero" opacity="0.200000003"></path>
                                    <g filter="url(#filter-1)" id="house-4">
                                        <g transform="translate(6.000000, 6.000000)">
                                            <path d="M1.42309255,6.17757728 L6.81498694,1.81253707 C6.9214609,1.72624745 7.07555983,1.72624745 7.18203379,1.81253707 L12.5739282,6.17757728 C12.7533582,6.32349238 12.9854926,6.39206664 13.2174185,6.36766924 C13.4493444,6.34327183 13.6612975,6.22798187 13.8049652,6.04807856 C14.1090006,5.67077662 14.0514483,5.12518781 13.6750687,4.81667406 L8.28317434,0.451633849 C7.53717737,-0.150544616 6.45984336,-0.150544616 5.71384639,0.451633849 L0.324931273,4.81667406 C-0.0514483495,5.12518781 -0.10900056,5.67077662 0.195034823,6.04807856 C0.338846883,6.22682666 0.550157663,6.34131301 0.78124277,6.36568094 C1.01232788,6.39004887 1.24369591,6.32224302 1.42309255,6.17757728 Z" id="Path" fill="#000000" fill-rule="nonzero"></path>
                                            <path d="M13.1245547,12.8333449 L13.1245547,8.75005187 C13.1145007,8.39544691 12.9566782,8.06030108 12.6877365,7.82256103 L7.74213775,3.73926804 C7.31320686,3.38411095 6.68500557,3.38411095 6.25607469,3.73926804 L1.3104759,7.82606099 C1.04191933,8.06272438 0.883724355,8.3964828 0.872466059,8.75005187 L0.872466059,12.8333449 C0.866234613,13.47066 1.38821776,13.99263 2.0392069,14 L5.24848342,14 C5.57404776,13.9964749 5.83513437,13.7353949 5.83182573,13.4166724 L5.83182573,10.2083708 C5.8288464,9.88977804 6.08974317,9.62888787 6.41516805,9.62504322 L7.58185268,9.62504322 C7.90727756,9.62888787 8.16817433,9.88977804 8.16519499,10.2083708 L8.16519499,13.4166724 C8.16188635,13.7353949 8.42297296,13.9964749 8.74853731,14 L11.9578138,14 C12.608803,13.99263 13.1307861,13.47066 13.1245547,12.8333449 Z" id="Path" fill="#000000" fill-rule="nonzero"></path>
                                        </g>
                                    </g>
                                </g>
                            </g>
                        </g>
                    </g>
                </g>
            </g>
        </g>
    </g>
</svg>