<?xml version="1.0" encoding="UTF-8"?>
<svg width="21px" height="20px" viewBox="0 0 21 20" version="1.1" xmlns="http://www.w3.org/2000/svg" xmlns:xlink="http://www.w3.org/1999/xlink">
    <title>iconfinder_38-instagram_1161953</title>
    <defs>
        <filter color-interpolation-filters="auto" id="filter-1">
            <feColorMatrix in="SourceGraphic" type="matrix" values="0 0 0 0 1.000000 0 0 0 0 1.000000 0 0 0 0 1.000000 0 0 0 1.000000 0"></feColorMatrix>
        </filter>
    </defs>
    <g id="Desktop" stroke="none" stroke-width="1" fill="none" fill-rule="evenodd">
        <g id="Homepage-V.1" transform="translate(-226.000000, -3806.000000)">
            <g id="iconfinder_38-instagram_1161953" transform="translate(0.000000, 3549.000000)" filter="url(#filter-1)">
                <g transform="translate(226.000000, 257.000000)">
                    <path d="M10.5,4 C7.4921875,4 5,6.44921875 5,9.5 C5,12.5507813 7.44921875,15 10.5,15 C13.5507812,15 16,12.5078125 16,9.5 C16,6.4921875 13.5078125,4 10.5,4 Z M10.5,13.0234375 C8.56640625,13.0234375 6.9765625,11.4335938 6.9765625,9.5 C6.9765625,7.56640625 8.56640625,5.9765625 10.5,5.9765625 C12.4335938,5.9765625 14.0234375,7.56640625 14.0234375,9.5 C14.0234375,11.4335938 12.4335938,13.0234375 10.5,13.0234375 Z" id="Shape" fill="#FFFFFF" fill-rule="nonzero"></path>
                    <circle id="Oval" fill="#FFFFFF" cx="16.5" cy="4.5" r="1.5"></circle>
                    <path d="M19.3064516,1.65322581 C18.2056452,0.564516129 16.6391129,0 14.8608871,0 L6.1391129,0 C2.45564516,0 0,2.33870968 0,5.84677419 L0,14.1129032 C0,15.8467742 0.592741935,17.3387097 1.77822581,18.4274194 C2.92137097,19.4758065 4.44556452,20 6.18145161,20 L14.8185484,20 C16.6391129,20 18.1633065,19.4354839 19.2641129,18.4274194 C20.4072581,17.3790323 21,15.8870968 21,14.1532258 L21,5.84677419 C21,4.15322581 20.4072581,2.7016129 19.3064516,1.65322581 Z M19.1370968,14.1532258 C19.1370968,15.4032258 18.671371,16.4112903 17.9092742,17.0967742 C17.1471774,17.7822581 16.0887097,18.1451613 14.8185484,18.1451613 L6.18145161,18.1451613 C4.91129032,18.1451613 3.85282258,17.7822581 3.09072581,17.0967742 C2.32862903,16.3709677 1.94758065,15.3629032 1.94758065,14.1129032 L1.94758065,5.84677419 C1.94758065,4.63709677 2.32862903,3.62903226 3.09072581,2.90322581 C3.81048387,2.21774194 4.91129032,1.85483871 6.18145161,1.85483871 L14.9032258,1.85483871 C16.1733871,1.85483871 17.2318548,2.21774194 17.9939516,2.94354839 C18.7137097,3.66935484 19.1370968,4.67741935 19.1370968,5.84677419 L19.1370968,14.1532258 L19.1370968,14.1532258 Z" id="Shape" fill="#FFFFFF" fill-rule="nonzero"></path>
                </g>
            </g>
        </g>
    </g>
</svg>