<?xml version="1.0" encoding="UTF-8"?>
<svg width="7px" height="17px" viewBox="0 0 7 17" version="1.1" xmlns="http://www.w3.org/2000/svg" xmlns:xlink="http://www.w3.org/1999/xlink">
    <title>iconfinder_06-facebook_104498</title>
    <defs>
        <filter color-interpolation-filters="auto" id="filter-1">
            <feColorMatrix in="SourceGraphic" type="matrix" values="0 0 0 0 1.000000 0 0 0 0 1.000000 0 0 0 0 1.000000 0 0 0 1.000000 0"></feColorMatrix>
        </filter>
    </defs>
    <g id="Desktop" stroke="none" stroke-width="1" fill="none" fill-rule="evenodd">
        <g id="Homepage-V.1" transform="translate(-281.000000, -3807.000000)">
            <g id="iconfinder_06-facebook_104498" transform="translate(0.000000, 3549.000000)" filter="url(#filter-1)">
                <g transform="translate(281.000000, 258.000000)">
                    <path d="M7,5.50467812 L4.61604597,5.50467812 L4.61604597,3.74028152 C4.61604597,3.07766508 5.00521205,2.92318361 5.27931219,2.92318361 C5.55278867,2.92318361 6.96164469,2.92318361 6.96164469,2.92318361 L6.96164469,0.0102049265 L4.6447345,0 C2.0727459,0 1.48743763,2.17259367 1.48743763,3.56292693 L1.48743763,5.50467812 L0,5.50467812 L0,8.50633409 L1.48743763,8.50633409 C1.48743763,12.3585179 1.48743763,17 1.48743763,17 L4.61604597,17 C4.61604597,17 4.61604597,12.3127717 4.61604597,8.50633409 L6.72714718,8.50633409 L7,5.50467812 Z" id="Path" fill="#FFFFFF"></path>
                </g>
            </g>
        </g>
    </g>
</svg>