<?xml version="1.0" encoding="UTF-8"?>
<svg width="18px" height="14px" viewBox="0 0 18 14" version="1.1" xmlns="http://www.w3.org/2000/svg" xmlns:xlink="http://www.w3.org/1999/xlink">
    <title>iconfinder_icon-social-twitter_211920</title>
    <defs>
        <filter color-interpolation-filters="auto" id="filter-1">
            <feColorMatrix in="SourceGraphic" type="matrix" values="0 0 0 0 1.000000 0 0 0 0 1.000000 0 0 0 0 1.000000 0 0 0 1.000000 0"></feColorMatrix>
        </filter>
    </defs>
    <g id="Desktop" stroke="none" stroke-width="1" fill="none" fill-rule="evenodd">
        <g id="Homepage-V.1" transform="translate(-180.000000, -3809.000000)">
            <g id="iconfinder_icon-social-twitter_211920" transform="translate(0.000000, 3549.000000)" filter="url(#filter-1)">
                <g transform="translate(180.000000, 260.000000)">
                    <path d="M18,1.65885417 C17.3363001,1.93958333 16.6268277,2.12916667 15.8792117,2.21666667 C16.6420852,1.77916667 17.2294978,1.08645833 17.5041322,0.2625 C16.7908455,0.6671875 16.0012715,0.9625 15.1582962,1.11927083 C14.4831532,0.430208333 13.5219326,0 12.4615385,0 C10.4208519,0 8.76923077,1.58229167 8.76923077,3.5328125 C8.76923077,3.80989583 8.79974571,4.0796875 8.86458996,4.33854167 C5.79402416,4.19270833 3.0705658,2.78541667 1.25111252,0.6453125 C0.934520025,1.16666667 0.751430388,1.77552083 0.751430388,2.42083333 C0.751430388,3.64583333 1.40368722,4.72864583 2.39542276,5.36302083 C1.78893833,5.3484375 1.21678322,5.18802083 0.720915448,4.921875 C0.720915448,4.93645833 0.720915448,4.95104167 0.720915448,4.965625 C0.720915448,6.67916667 1.99491418,8.1046875 3.68467896,8.42916667 C3.37571519,8.509375 3.04767959,8.553125 2.71201526,8.553125 C2.47552448,8.553125 2.24284806,8.53125 2.01780038,8.4875 C2.48696758,9.89114583 3.85251113,10.9119792 5.46980292,10.9411458 C4.2072473,11.8890625 2.6128417,12.4541667 0.881118881,12.4541667 C0.58359822,12.4541667 0.289891926,12.4359375 0,12.403125 C1.63254927,13.4166667 3.5740623,14 5.65670693,14 C12.4539097,14 16.1691036,8.61510417 16.1691036,3.94479167 C16.1691036,3.79166667 16.1652893,3.63854167 16.1576605,3.4890625 C16.878576,2.98958333 17.5041322,2.36614583 18,1.65885417 Z" id="Path" fill="#FFFFFF"></path>
                </g>
            </g>
        </g>
    </g>
</svg>